M48
; DRILL file {KiCad 7.0.10} date Fri Feb  9 16:37:51 2024
; FORMAT={-:-/ absolute / inch / decimal}
; #@! TF.CreationDate,2024-02-09T16:37:51+11:00
; #@! TF.GenerationSoftware,Kicad,Pcbnew,7.0.10
; #@! TF.FileFunction,Plated,1,2,PTH
FMAT,2
INCH
; #@! TA.AperFunction,Plated,PTH,ViaDrill
T1C0.0157
; #@! TA.AperFunction,Plated,PTH,ComponentDrill
T2C0.0276
; #@! TA.AperFunction,Plated,PTH,ComponentDrill
T3C0.0315
; #@! TA.AperFunction,Plated,PTH,ComponentDrill
T4C0.0354
; #@! TA.AperFunction,Plated,PTH,ComponentDrill
T5C0.0394
; #@! TA.AperFunction,Plated,PTH,ComponentDrill
T6C0.0433
; #@! TA.AperFunction,Plated,PTH,ComponentDrill
T7C0.0512
; #@! TA.AperFunction,Plated,PTH,ComponentDrill
T8C0.0598
; #@! TA.AperFunction,Plated,PTH,ComponentDrill
T9C0.0630
; #@! TA.AperFunction,Plated,PTH,ComponentDrill
T10C0.0787
%
G90
G05
T1
X4.5Y-3.4
X5.1Y-3.3
X5.2Y-3.2
T2
X2.55Y-4.3
X2.6Y-3.25
X2.6Y-3.55
X2.6Y-3.65
X2.6Y-3.95
X2.85Y-4.3
X3.5Y-2.85
X3.5Y-3.15
X3.5Y-3.25
X3.5Y-3.55
X3.55Y-2.5
X3.7Y-3.5524
X3.7Y-3.8524
X3.85Y-2.5
X4.35Y-2.9
X4.65Y-2.9
X5.15Y-4.1
X5.45Y-4.1
T3
X3.7524Y-3.1071
X3.7524Y-3.3071
X3.9Y-3.5524
X3.9Y-3.8476
X4.0476Y-3.1071
X4.0476Y-3.3071
X4.11Y-4.0624
X4.11Y-4.3576
X4.3Y-3.1071
X4.3Y-3.3
X4.5504Y-3.8504
X4.5504Y-3.9504
X4.5504Y-4.0504
X4.5504Y-4.1504
X4.7724Y-3.08
X4.8504Y-3.8504
X4.8504Y-3.9504
X4.8504Y-4.0504
X4.8504Y-4.1504
X5.0676Y-3.08
X5.48Y-2.6124
X5.48Y-2.9076
X5.62Y-2.6124
X5.62Y-2.9076
X6.3647Y-4.11
X6.66Y-4.11
T4
X2.8Y-3.4
X2.8Y-3.5
X2.8Y-3.7
X2.8Y-3.8
X2.8Y-4.0
X2.8Y-4.1
X3.2Y-3.0
X3.2Y-3.4
X3.3Y-3.0
X3.3Y-3.4
X4.4Y-2.6
X4.5Y-2.6
T5
X3.45Y-2.3
X3.55Y-2.3
X3.65Y-2.3
X3.75Y-2.3
X3.85Y-2.3
X3.95Y-2.3
X5.7211Y-3.05
X5.7211Y-3.15
X5.7211Y-3.25
X5.7211Y-3.35
X5.7211Y-3.45
X5.7211Y-3.55
X5.7211Y-3.65
X5.7211Y-3.75
X5.9211Y-3.1
X5.9211Y-3.2
X5.9211Y-3.3
X5.9211Y-3.4
X5.9211Y-3.5
X5.9211Y-3.6
X5.9211Y-3.7
T6
X4.1441Y-3.6
X4.1441Y-3.7772
X4.4Y-3.6
X4.4Y-3.7772
T7
X2.3Y-3.0
X2.9Y-3.0
X3.3Y-4.1
X3.9Y-4.1
X4.9Y-2.3
X4.9Y-2.9
T8
X2.3Y-3.3
X2.3Y-3.5
X2.3Y-3.7
X2.3Y-3.9
X2.3Y-4.1
X5.2Y-4.4
X5.4Y-4.4
X6.9Y-2.9
X6.9Y-3.1
X6.9Y-3.3
X6.9Y-3.5
X6.9Y-3.7
X6.9Y-3.9
T9
X2.3Y-2.7
X2.9Y-2.7
X3.3Y-4.4
X3.9Y-4.4
X5.2Y-2.3
X5.2Y-2.9
X5.64Y-4.26
X6.24Y-4.26
T10
X6.4211Y-2.9315
X6.4211Y-3.8685
M30
