%TF.GenerationSoftware,KiCad,Pcbnew,7.0.10*%
%TF.CreationDate,2024-02-09T16:37:34+11:00*%
%TF.ProjectId,CAN_DC_motor_driver,43414e5f-4443-45f6-9d6f-746f725f6472,0*%
%TF.SameCoordinates,Original*%
%TF.FileFunction,OtherDrawing,Comment*%
%FSLAX46Y46*%
G04 Gerber Fmt 4.6, Leading zero omitted, Abs format (unit mm)*
G04 Created by KiCad (PCBNEW 7.0.10) date 2024-02-09 16:37:34*
%MOMM*%
%LPD*%
G01*
G04 APERTURE LIST*
%ADD10C,0.020000*%
%ADD11C,0.100000*%
G04 APERTURE END LIST*
D10*
X157499067Y-74784999D02*
X157506210Y-74792142D01*
X157506210Y-74792142D02*
X157513352Y-74813570D01*
X157513352Y-74813570D02*
X157513352Y-74827856D01*
X157513352Y-74827856D02*
X157506210Y-74849285D01*
X157506210Y-74849285D02*
X157491924Y-74863570D01*
X157491924Y-74863570D02*
X157477638Y-74870713D01*
X157477638Y-74870713D02*
X157449067Y-74877856D01*
X157449067Y-74877856D02*
X157427638Y-74877856D01*
X157427638Y-74877856D02*
X157399067Y-74870713D01*
X157399067Y-74870713D02*
X157384781Y-74863570D01*
X157384781Y-74863570D02*
X157370495Y-74849285D01*
X157370495Y-74849285D02*
X157363352Y-74827856D01*
X157363352Y-74827856D02*
X157363352Y-74813570D01*
X157363352Y-74813570D02*
X157370495Y-74792142D01*
X157370495Y-74792142D02*
X157377638Y-74784999D01*
X157363352Y-74692142D02*
X157363352Y-74663570D01*
X157363352Y-74663570D02*
X157370495Y-74649285D01*
X157370495Y-74649285D02*
X157384781Y-74634999D01*
X157384781Y-74634999D02*
X157413352Y-74627856D01*
X157413352Y-74627856D02*
X157463352Y-74627856D01*
X157463352Y-74627856D02*
X157491924Y-74634999D01*
X157491924Y-74634999D02*
X157506210Y-74649285D01*
X157506210Y-74649285D02*
X157513352Y-74663570D01*
X157513352Y-74663570D02*
X157513352Y-74692142D01*
X157513352Y-74692142D02*
X157506210Y-74706428D01*
X157506210Y-74706428D02*
X157491924Y-74720713D01*
X157491924Y-74720713D02*
X157463352Y-74727856D01*
X157463352Y-74727856D02*
X157413352Y-74727856D01*
X157413352Y-74727856D02*
X157384781Y-74720713D01*
X157384781Y-74720713D02*
X157370495Y-74706428D01*
X157370495Y-74706428D02*
X157363352Y-74692142D01*
X157513352Y-74563570D02*
X157363352Y-74563570D01*
X157363352Y-74563570D02*
X157363352Y-74506427D01*
X157363352Y-74506427D02*
X157370495Y-74492142D01*
X157370495Y-74492142D02*
X157377638Y-74484999D01*
X157377638Y-74484999D02*
X157391924Y-74477856D01*
X157391924Y-74477856D02*
X157413352Y-74477856D01*
X157413352Y-74477856D02*
X157427638Y-74484999D01*
X157427638Y-74484999D02*
X157434781Y-74492142D01*
X157434781Y-74492142D02*
X157441924Y-74506427D01*
X157441924Y-74506427D02*
X157441924Y-74563570D01*
X157513352Y-74413570D02*
X157363352Y-74413570D01*
X157363352Y-74413570D02*
X157363352Y-74356427D01*
X157363352Y-74356427D02*
X157370495Y-74342142D01*
X157370495Y-74342142D02*
X157377638Y-74334999D01*
X157377638Y-74334999D02*
X157391924Y-74327856D01*
X157391924Y-74327856D02*
X157413352Y-74327856D01*
X157413352Y-74327856D02*
X157427638Y-74334999D01*
X157427638Y-74334999D02*
X157434781Y-74342142D01*
X157434781Y-74342142D02*
X157441924Y-74356427D01*
X157441924Y-74356427D02*
X157441924Y-74413570D01*
X157434781Y-74263570D02*
X157434781Y-74213570D01*
X157513352Y-74192142D02*
X157513352Y-74263570D01*
X157513352Y-74263570D02*
X157363352Y-74263570D01*
X157363352Y-74263570D02*
X157363352Y-74192142D01*
X157513352Y-74042142D02*
X157441924Y-74092142D01*
X157513352Y-74127856D02*
X157363352Y-74127856D01*
X157363352Y-74127856D02*
X157363352Y-74070713D01*
X157363352Y-74070713D02*
X157370495Y-74056428D01*
X157370495Y-74056428D02*
X157377638Y-74049285D01*
X157377638Y-74049285D02*
X157391924Y-74042142D01*
X157391924Y-74042142D02*
X157413352Y-74042142D01*
X157413352Y-74042142D02*
X157427638Y-74049285D01*
X157427638Y-74049285D02*
X157434781Y-74056428D01*
X157434781Y-74056428D02*
X157441924Y-74070713D01*
X157441924Y-74070713D02*
X157441924Y-74127856D01*
X157213352Y-74924285D02*
X157063352Y-74924285D01*
X157213352Y-74838571D02*
X157127638Y-74902857D01*
X157063352Y-74838571D02*
X157149067Y-74924285D01*
X157134781Y-74774285D02*
X157134781Y-74724285D01*
X157213352Y-74702857D02*
X157213352Y-74774285D01*
X157213352Y-74774285D02*
X157063352Y-74774285D01*
X157063352Y-74774285D02*
X157063352Y-74702857D01*
X157134781Y-74638571D02*
X157134781Y-74588571D01*
X157213352Y-74567143D02*
X157213352Y-74638571D01*
X157213352Y-74638571D02*
X157063352Y-74638571D01*
X157063352Y-74638571D02*
X157063352Y-74567143D01*
X157213352Y-74502857D02*
X157063352Y-74502857D01*
X157063352Y-74502857D02*
X157063352Y-74445714D01*
X157063352Y-74445714D02*
X157070495Y-74431429D01*
X157070495Y-74431429D02*
X157077638Y-74424286D01*
X157077638Y-74424286D02*
X157091924Y-74417143D01*
X157091924Y-74417143D02*
X157113352Y-74417143D01*
X157113352Y-74417143D02*
X157127638Y-74424286D01*
X157127638Y-74424286D02*
X157134781Y-74431429D01*
X157134781Y-74431429D02*
X157141924Y-74445714D01*
X157141924Y-74445714D02*
X157141924Y-74502857D01*
X157063352Y-74324286D02*
X157063352Y-74295714D01*
X157063352Y-74295714D02*
X157070495Y-74281429D01*
X157070495Y-74281429D02*
X157084781Y-74267143D01*
X157084781Y-74267143D02*
X157113352Y-74260000D01*
X157113352Y-74260000D02*
X157163352Y-74260000D01*
X157163352Y-74260000D02*
X157191924Y-74267143D01*
X157191924Y-74267143D02*
X157206210Y-74281429D01*
X157206210Y-74281429D02*
X157213352Y-74295714D01*
X157213352Y-74295714D02*
X157213352Y-74324286D01*
X157213352Y-74324286D02*
X157206210Y-74338572D01*
X157206210Y-74338572D02*
X157191924Y-74352857D01*
X157191924Y-74352857D02*
X157163352Y-74360000D01*
X157163352Y-74360000D02*
X157113352Y-74360000D01*
X157113352Y-74360000D02*
X157084781Y-74352857D01*
X157084781Y-74352857D02*
X157070495Y-74338572D01*
X157070495Y-74338572D02*
X157063352Y-74324286D01*
X157063352Y-74195714D02*
X157184781Y-74195714D01*
X157184781Y-74195714D02*
X157199067Y-74188571D01*
X157199067Y-74188571D02*
X157206210Y-74181429D01*
X157206210Y-74181429D02*
X157213352Y-74167143D01*
X157213352Y-74167143D02*
X157213352Y-74138571D01*
X157213352Y-74138571D02*
X157206210Y-74124286D01*
X157206210Y-74124286D02*
X157199067Y-74117143D01*
X157199067Y-74117143D02*
X157184781Y-74110000D01*
X157184781Y-74110000D02*
X157063352Y-74110000D01*
X157063352Y-74060000D02*
X157063352Y-73974286D01*
X157213352Y-74017143D02*
X157063352Y-74017143D01*
X157499067Y-98584999D02*
X157506210Y-98592142D01*
X157506210Y-98592142D02*
X157513352Y-98613570D01*
X157513352Y-98613570D02*
X157513352Y-98627856D01*
X157513352Y-98627856D02*
X157506210Y-98649285D01*
X157506210Y-98649285D02*
X157491924Y-98663570D01*
X157491924Y-98663570D02*
X157477638Y-98670713D01*
X157477638Y-98670713D02*
X157449067Y-98677856D01*
X157449067Y-98677856D02*
X157427638Y-98677856D01*
X157427638Y-98677856D02*
X157399067Y-98670713D01*
X157399067Y-98670713D02*
X157384781Y-98663570D01*
X157384781Y-98663570D02*
X157370495Y-98649285D01*
X157370495Y-98649285D02*
X157363352Y-98627856D01*
X157363352Y-98627856D02*
X157363352Y-98613570D01*
X157363352Y-98613570D02*
X157370495Y-98592142D01*
X157370495Y-98592142D02*
X157377638Y-98584999D01*
X157363352Y-98492142D02*
X157363352Y-98463570D01*
X157363352Y-98463570D02*
X157370495Y-98449285D01*
X157370495Y-98449285D02*
X157384781Y-98434999D01*
X157384781Y-98434999D02*
X157413352Y-98427856D01*
X157413352Y-98427856D02*
X157463352Y-98427856D01*
X157463352Y-98427856D02*
X157491924Y-98434999D01*
X157491924Y-98434999D02*
X157506210Y-98449285D01*
X157506210Y-98449285D02*
X157513352Y-98463570D01*
X157513352Y-98463570D02*
X157513352Y-98492142D01*
X157513352Y-98492142D02*
X157506210Y-98506428D01*
X157506210Y-98506428D02*
X157491924Y-98520713D01*
X157491924Y-98520713D02*
X157463352Y-98527856D01*
X157463352Y-98527856D02*
X157413352Y-98527856D01*
X157413352Y-98527856D02*
X157384781Y-98520713D01*
X157384781Y-98520713D02*
X157370495Y-98506428D01*
X157370495Y-98506428D02*
X157363352Y-98492142D01*
X157513352Y-98363570D02*
X157363352Y-98363570D01*
X157363352Y-98363570D02*
X157363352Y-98306427D01*
X157363352Y-98306427D02*
X157370495Y-98292142D01*
X157370495Y-98292142D02*
X157377638Y-98284999D01*
X157377638Y-98284999D02*
X157391924Y-98277856D01*
X157391924Y-98277856D02*
X157413352Y-98277856D01*
X157413352Y-98277856D02*
X157427638Y-98284999D01*
X157427638Y-98284999D02*
X157434781Y-98292142D01*
X157434781Y-98292142D02*
X157441924Y-98306427D01*
X157441924Y-98306427D02*
X157441924Y-98363570D01*
X157513352Y-98213570D02*
X157363352Y-98213570D01*
X157363352Y-98213570D02*
X157363352Y-98156427D01*
X157363352Y-98156427D02*
X157370495Y-98142142D01*
X157370495Y-98142142D02*
X157377638Y-98134999D01*
X157377638Y-98134999D02*
X157391924Y-98127856D01*
X157391924Y-98127856D02*
X157413352Y-98127856D01*
X157413352Y-98127856D02*
X157427638Y-98134999D01*
X157427638Y-98134999D02*
X157434781Y-98142142D01*
X157434781Y-98142142D02*
X157441924Y-98156427D01*
X157441924Y-98156427D02*
X157441924Y-98213570D01*
X157434781Y-98063570D02*
X157434781Y-98013570D01*
X157513352Y-97992142D02*
X157513352Y-98063570D01*
X157513352Y-98063570D02*
X157363352Y-98063570D01*
X157363352Y-98063570D02*
X157363352Y-97992142D01*
X157513352Y-97842142D02*
X157441924Y-97892142D01*
X157513352Y-97927856D02*
X157363352Y-97927856D01*
X157363352Y-97927856D02*
X157363352Y-97870713D01*
X157363352Y-97870713D02*
X157370495Y-97856428D01*
X157370495Y-97856428D02*
X157377638Y-97849285D01*
X157377638Y-97849285D02*
X157391924Y-97842142D01*
X157391924Y-97842142D02*
X157413352Y-97842142D01*
X157413352Y-97842142D02*
X157427638Y-97849285D01*
X157427638Y-97849285D02*
X157434781Y-97856428D01*
X157434781Y-97856428D02*
X157441924Y-97870713D01*
X157441924Y-97870713D02*
X157441924Y-97927856D01*
X157213352Y-98724285D02*
X157063352Y-98724285D01*
X157213352Y-98638571D02*
X157127638Y-98702857D01*
X157063352Y-98638571D02*
X157149067Y-98724285D01*
X157134781Y-98574285D02*
X157134781Y-98524285D01*
X157213352Y-98502857D02*
X157213352Y-98574285D01*
X157213352Y-98574285D02*
X157063352Y-98574285D01*
X157063352Y-98574285D02*
X157063352Y-98502857D01*
X157134781Y-98438571D02*
X157134781Y-98388571D01*
X157213352Y-98367143D02*
X157213352Y-98438571D01*
X157213352Y-98438571D02*
X157063352Y-98438571D01*
X157063352Y-98438571D02*
X157063352Y-98367143D01*
X157213352Y-98302857D02*
X157063352Y-98302857D01*
X157063352Y-98302857D02*
X157063352Y-98245714D01*
X157063352Y-98245714D02*
X157070495Y-98231429D01*
X157070495Y-98231429D02*
X157077638Y-98224286D01*
X157077638Y-98224286D02*
X157091924Y-98217143D01*
X157091924Y-98217143D02*
X157113352Y-98217143D01*
X157113352Y-98217143D02*
X157127638Y-98224286D01*
X157127638Y-98224286D02*
X157134781Y-98231429D01*
X157134781Y-98231429D02*
X157141924Y-98245714D01*
X157141924Y-98245714D02*
X157141924Y-98302857D01*
X157063352Y-98124286D02*
X157063352Y-98095714D01*
X157063352Y-98095714D02*
X157070495Y-98081429D01*
X157070495Y-98081429D02*
X157084781Y-98067143D01*
X157084781Y-98067143D02*
X157113352Y-98060000D01*
X157113352Y-98060000D02*
X157163352Y-98060000D01*
X157163352Y-98060000D02*
X157191924Y-98067143D01*
X157191924Y-98067143D02*
X157206210Y-98081429D01*
X157206210Y-98081429D02*
X157213352Y-98095714D01*
X157213352Y-98095714D02*
X157213352Y-98124286D01*
X157213352Y-98124286D02*
X157206210Y-98138572D01*
X157206210Y-98138572D02*
X157191924Y-98152857D01*
X157191924Y-98152857D02*
X157163352Y-98160000D01*
X157163352Y-98160000D02*
X157113352Y-98160000D01*
X157113352Y-98160000D02*
X157084781Y-98152857D01*
X157084781Y-98152857D02*
X157070495Y-98138572D01*
X157070495Y-98138572D02*
X157063352Y-98124286D01*
X157063352Y-97995714D02*
X157184781Y-97995714D01*
X157184781Y-97995714D02*
X157199067Y-97988571D01*
X157199067Y-97988571D02*
X157206210Y-97981429D01*
X157206210Y-97981429D02*
X157213352Y-97967143D01*
X157213352Y-97967143D02*
X157213352Y-97938571D01*
X157213352Y-97938571D02*
X157206210Y-97924286D01*
X157206210Y-97924286D02*
X157199067Y-97917143D01*
X157199067Y-97917143D02*
X157184781Y-97910000D01*
X157184781Y-97910000D02*
X157063352Y-97910000D01*
X157063352Y-97860000D02*
X157063352Y-97774286D01*
X157213352Y-97817143D02*
X157063352Y-97817143D01*
D11*
%TO.C,HS1*%
X156645000Y-98860000D02*
X156645000Y-97660000D01*
X157945000Y-98860000D02*
X156645000Y-98860000D01*
X156645000Y-97660000D02*
X157945000Y-97660000D01*
X157945000Y-97660000D02*
X157945000Y-98860000D01*
X156645000Y-75060000D02*
X156645000Y-73860000D01*
X157945000Y-75060000D02*
X156645000Y-75060000D01*
X156645000Y-73860000D02*
X157945000Y-73860000D01*
X157945000Y-73860000D02*
X157945000Y-75060000D01*
%TD*%
M02*
