%TF.GenerationSoftware,KiCad,Pcbnew,7.0.10*%
%TF.CreationDate,2024-02-09T16:37:34+11:00*%
%TF.ProjectId,CAN_DC_motor_driver,43414e5f-4443-45f6-9d6f-746f725f6472,0*%
%TF.SameCoordinates,Original*%
%TF.FileFunction,Soldermask,Bot*%
%TF.FilePolarity,Negative*%
%FSLAX46Y46*%
G04 Gerber Fmt 4.6, Leading zero omitted, Abs format (unit mm)*
G04 Created by KiCad (PCBNEW 7.0.10) date 2024-02-09 16:37:34*
%MOMM*%
%LPD*%
G01*
G04 APERTURE LIST*
%ADD10O,1.600000X1.600000*%
%ADD11C,1.600000*%
%ADD12C,1.400000*%
%ADD13O,1.400000X1.400000*%
%ADD14R,1.800000X1.800000*%
%ADD15C,1.800000*%
%ADD16O,1.700000X1.700000*%
%ADD17R,1.700000X1.700000*%
%ADD18C,4.300000*%
%ADD19R,2.600000X2.600000*%
%ADD20O,2.600000X2.600000*%
%ADD21C,3.000000*%
%ADD22R,1.600000X1.600000*%
%ADD23R,3.200000X3.200000*%
%ADD24O,3.200000X3.200000*%
%ADD25R,3.000000X3.000000*%
%ADD26O,1.800000X1.800000*%
%ADD27C,1.500000*%
%ADD28C,2.000000*%
G04 APERTURE END LIST*
D10*
%TO.C,C6*%
X139192000Y-66354000D03*
D11*
X139192000Y-73854000D03*
%TD*%
D12*
%TO.C,R10*%
X88900000Y-90170000D03*
D13*
X88900000Y-82550000D03*
%TD*%
D11*
%TO.C,C5*%
X169164000Y-104394000D03*
D10*
X161664000Y-104394000D03*
%TD*%
D11*
%TO.C,C4*%
X121218000Y-78232000D03*
D10*
X128718000Y-78232000D03*
%TD*%
D12*
%TO.C,R5*%
X110490000Y-73660000D03*
D13*
X118110000Y-73660000D03*
%TD*%
D14*
%TO.C,D1*%
X114300000Y-66040000D03*
D15*
X111760000Y-66040000D03*
%TD*%
D16*
%TO.C,J5*%
X100330000Y-58420000D03*
X97790000Y-58420000D03*
X95250000Y-58420000D03*
X92710000Y-58420000D03*
X90170000Y-58420000D03*
D17*
X87630000Y-58420000D03*
%TD*%
D18*
%TO.C,H2*%
X175260000Y-111760000D03*
%TD*%
D12*
%TO.C,R6*%
X130810000Y-104140000D03*
D13*
X138430000Y-104140000D03*
%TD*%
D11*
%TO.C,C1*%
X102810000Y-78920000D03*
D10*
X95310000Y-78920000D03*
%TD*%
D19*
%TO.C,D7*%
X99060000Y-104140000D03*
D20*
X83820000Y-104140000D03*
%TD*%
D21*
%TO.C,HS1*%
X163095000Y-98260000D03*
X163095000Y-74460000D03*
%TD*%
D22*
%TO.C,U1*%
X115580000Y-97800000D03*
D10*
X115580000Y-100340000D03*
X115580000Y-102880000D03*
X115580000Y-105420000D03*
X123200000Y-105420000D03*
X123200000Y-102880000D03*
X123200000Y-100340000D03*
X123200000Y-97800000D03*
%TD*%
D18*
%TO.C,H1*%
X175260000Y-58420000D03*
%TD*%
D19*
%TO.C,D8*%
X124460000Y-73660000D03*
D20*
X124460000Y-58420000D03*
%TD*%
D23*
%TO.C,D11*%
X99060000Y-111760000D03*
D24*
X83820000Y-111760000D03*
%TD*%
D12*
%TO.C,R9*%
X88900000Y-80010000D03*
D13*
X88900000Y-72390000D03*
%TD*%
D12*
%TO.C,R3*%
X66040000Y-82550000D03*
D13*
X66040000Y-90170000D03*
%TD*%
D23*
%TO.C,D12*%
X73660000Y-68580000D03*
D24*
X58420000Y-68580000D03*
%TD*%
D11*
%TO.C,C8*%
X142748000Y-73854000D03*
D10*
X142748000Y-66354000D03*
%TD*%
D11*
%TO.C,C3*%
X99060000Y-90230000D03*
D10*
X99060000Y-97730000D03*
%TD*%
D25*
%TO.C,J2*%
X175260000Y-83820000D03*
D21*
X175260000Y-88900000D03*
%TD*%
D14*
%TO.C,D2*%
X71120000Y-86360000D03*
D15*
X71120000Y-88900000D03*
%TD*%
D18*
%TO.C,H3*%
X58420000Y-58420000D03*
%TD*%
D14*
%TO.C,D9*%
X83820000Y-86360000D03*
D15*
X81280000Y-86360000D03*
%TD*%
D23*
%TO.C,D10*%
X132080000Y-73660000D03*
D24*
X132080000Y-58420000D03*
%TD*%
D25*
%TO.C,J3*%
X137160000Y-111760000D03*
D21*
X132080000Y-111760000D03*
%TD*%
D14*
%TO.C,U3*%
X145315000Y-77470000D03*
D26*
X150395000Y-78740000D03*
X145315000Y-80010000D03*
X150395000Y-81280000D03*
X145315000Y-82550000D03*
X150395000Y-83820000D03*
X145315000Y-85090000D03*
X150395000Y-86360000D03*
X145315000Y-87630000D03*
X150395000Y-88900000D03*
X145315000Y-90170000D03*
X150395000Y-91440000D03*
X145315000Y-92710000D03*
X150395000Y-93980000D03*
X145315000Y-95250000D03*
%TD*%
D12*
%TO.C,R7*%
X97790000Y-63500000D03*
D13*
X90170000Y-63500000D03*
%TD*%
D27*
%TO.C,Y1*%
X109220000Y-83820000D03*
X109220000Y-78920000D03*
%TD*%
D12*
%TO.C,R8*%
X64770000Y-109220000D03*
D13*
X72390000Y-109220000D03*
%TD*%
D28*
%TO.C,SW1*%
X105260000Y-91440000D03*
X111760000Y-91440000D03*
X105260000Y-95940000D03*
X111760000Y-95940000D03*
%TD*%
D14*
%TO.C,D4*%
X71120000Y-101600000D03*
D15*
X71120000Y-104140000D03*
%TD*%
D23*
%TO.C,D13*%
X158496000Y-108204000D03*
D24*
X143256000Y-108204000D03*
%TD*%
D25*
%TO.C,J6*%
X175260000Y-73660000D03*
D21*
X175260000Y-78740000D03*
%TD*%
D12*
%TO.C,R1*%
X93980000Y-97850000D03*
D13*
X93980000Y-90230000D03*
%TD*%
D19*
%TO.C,D6*%
X58420000Y-76200000D03*
D20*
X73660000Y-76200000D03*
%TD*%
D11*
%TO.C,C7*%
X104394000Y-110684000D03*
D10*
X104394000Y-103184000D03*
%TD*%
D12*
%TO.C,R4*%
X66040000Y-92710000D03*
D13*
X66040000Y-100330000D03*
%TD*%
D14*
%TO.C,D3*%
X71120000Y-93980000D03*
D15*
X71120000Y-96520000D03*
%TD*%
D25*
%TO.C,J4*%
X175260000Y-93980000D03*
D21*
X175260000Y-99060000D03*
%TD*%
D11*
%TO.C,C2*%
X95310000Y-84000000D03*
D10*
X102810000Y-84000000D03*
%TD*%
D18*
%TO.C,H4*%
X58420000Y-111760000D03*
%TD*%
D25*
%TO.C,J1*%
X58420000Y-104140000D03*
D21*
X58420000Y-99060000D03*
X58420000Y-93980000D03*
X58420000Y-88900000D03*
X58420000Y-83820000D03*
%TD*%
D14*
%TO.C,D5*%
X83820000Y-76200000D03*
D15*
X81280000Y-76200000D03*
%TD*%
M02*
